<svg width="24" height="24" viewBox="0 0 24 24" fill="none" xmlns="http://www.w3.org/2000/svg">
<path d="M17.721 5L16.721 2H7.279L6.279 5H2V21H22V5H17.721ZM20 19H4V7H7.721L8.721 4H15.279L16.279 7H20V19Z" fill="black"/>
<path d="M12 7C10.9122 7 9.84884 7.32257 8.94437 7.92692C8.0399 8.53126 7.33495 9.39025 6.91867 10.3952C6.50238 11.4002 6.39346 12.5061 6.60568 13.573C6.8179 14.6399 7.34173 15.6199 8.11091 16.3891C8.8801 17.1583 9.86011 17.6821 10.927 17.8943C11.9939 18.1065 13.0998 17.9976 14.1048 17.5813C15.1098 17.1651 15.9687 16.4601 16.5731 15.5556C17.1774 14.6512 17.5 13.5878 17.5 12.5C17.4984 11.0418 16.9184 9.64377 15.8873 8.61267C14.8562 7.58156 13.4582 7.00159 12 7ZM12 16C11.3078 16 10.6311 15.7947 10.0555 15.4101C9.47993 15.0256 9.03133 14.4789 8.76642 13.8394C8.50152 13.1999 8.43221 12.4961 8.56725 11.8172C8.7023 11.1382 9.03565 10.5146 9.52513 10.0251C10.0146 9.53564 10.6383 9.2023 11.3172 9.06725C11.9961 8.9322 12.6999 9.00151 13.3394 9.26642C13.9789 9.53133 14.5256 9.97993 14.9101 10.5555C15.2947 11.1311 15.5 11.8078 15.5 12.5C15.5 13.4283 15.1313 14.3185 14.4749 14.9749C13.8185 15.6313 12.9283 16 12 16Z" fill="black"/>
</svg>
