<svg width="21" height="21" viewBox="0 0 21 21" fill="none" xmlns="http://www.w3.org/2000/svg">
<path d="M20.707 19.293L16.168 14.754C17.5148 13.0465 18.1584 10.8888 17.9669 8.72245C17.7755 6.55609 16.7635 4.54474 15.138 3.09989C13.5125 1.65504 11.3964 0.885884 9.22255 0.949775C7.04868 1.01367 4.98137 1.90577 3.44355 3.44359C1.90573 4.98142 1.01362 7.04872 0.949729 9.22259C0.885838 11.3965 1.65499 13.5126 3.09984 15.1381C4.5447 16.7636 6.55604 17.7755 8.72241 17.967C10.8888 18.1584 13.0464 17.5149 14.754 16.168L19.293 20.707L20.707 19.293ZM9.49995 16C8.21438 16 6.95767 15.6188 5.88875 14.9046C4.81983 14.1903 3.98671 13.1752 3.49474 11.9874C3.00277 10.7997 2.87405 9.49279 3.12485 8.23191C3.37565 6.97104 3.99472 5.81285 4.90376 4.90381C5.8128 3.99476 6.97099 3.3757 8.23187 3.1249C9.49274 2.87409 10.7997 3.00281 11.9874 3.49478C13.1751 3.98675 14.1903 4.81987 14.9045 5.88879C15.6187 6.95771 16 8.21442 16 9.5C15.9978 11.2233 15.3123 12.8753 14.0938 14.0939C12.8753 15.3124 11.2232 15.9979 9.49995 16Z" fill="black"/>
</svg>
